<svg width="742" height="757" viewBox="0 0 742 757" fill="none" xmlns="http://www.w3.org/2000/svg">
<path d="M203 236C203 105.661 318.99 0 462.071 0C605.152 0 721.143 105.661 721.143 236V748H203V236Z" fill="#D7FCFF"/>
<path d="M96.5714 61.3471L96.0637 60.4855L96.5714 61.3471ZM87.2857 137.745L87.1026 138.728L87.2857 137.745ZM3 119.61L11.3196 111.603L0.225236 108.401L3 119.61ZM233.768 125.915C220.15 109.589 196.964 86.7219 171.63 71.1731C146.363 55.6652 118.581 47.2163 96.0637 60.4855L97.0791 62.2086C118.562 49.549 145.422 57.4343 170.584 72.8777C195.679 88.2802 218.707 110.981 232.232 127.196L233.768 125.915ZM96.0637 60.4855C68.3624 76.8097 60.1761 95.211 62.0383 110.282C63.886 125.235 75.6301 136.591 87.1026 138.728L87.4688 136.762C76.8804 134.789 65.7674 124.152 64.0232 110.036C62.2935 96.0385 69.7804 78.2955 97.0791 62.2086L96.0637 60.4855ZM87.1026 138.728C95.4523 140.283 102.98 135.06 108.537 126.882C114.118 118.669 117.914 107.222 118.818 95.6204C119.722 84.0237 117.745 72.1378 111.617 63.1183C105.454 54.0463 95.1736 48 79.7857 48V50C94.5764 50 104.207 55.7702 109.963 64.2422C115.755 72.7667 117.706 84.1521 116.824 95.465C115.943 106.773 112.24 117.874 106.883 125.758C101.502 133.677 94.6548 138.1 87.4688 136.762L87.1026 138.728ZM79.7857 48C36.2058 48 13.0122 85.7363 4.54941 110.637L6.44304 111.281C14.8343 86.5902 37.5595 50 79.7857 50V48Z" fill="#25A4AD"/>
<path d="M741.5 236V756.5H224.357V236C224.357 105.98 340.079 0.5 482.929 0.5C625.779 0.5 741.5 105.98 741.5 236Z" stroke="#25A4AD"/>
</svg>
